<svg id="visual" viewBox="0 0 900 600" width="900" height="600" xmlns="http://www.w3.org/2000/svg" xmlns:xlink="http://www.w3.org/1999/xlink" version="1.1"><rect x="0" y="0" width="900" height="600" fill="#fff"></rect><path d="M163 0L175.3 9.2C187.7 18.3 212.3 36.7 226.2 54.8C240 73 243 91 228.8 109.2C214.7 127.3 183.3 145.7 180.5 163.8C177.7 182 203.3 200 200.8 218.2C198.3 236.3 167.7 254.7 152.7 272.8C137.7 291 138.3 309 136 327.2C133.7 345.3 128.3 363.7 122.3 381.8C116.3 400 109.7 418 119.7 436.2C129.7 454.3 156.3 472.7 158 490.8C159.7 509 136.3 527 149.5 545.2C162.7 563.3 212.3 581.7 237.2 590.8L262 600L0 600L0 590.8C0 581.7 0 563.3 0 545.2C0 527 0 509 0 490.8C0 472.7 0 454.3 0 436.2C0 418 0 400 0 381.8C0 363.7 0 345.3 0 327.2C0 309 0 291 0 272.8C0 254.7 0 236.3 0 218.2C0 200 0 182 0 163.8C0 145.7 0 127.3 0 109.2C0 91 0 73 0 54.8C0 36.7 0 18.3 0 9.2L0 0Z" fill="#00d5ff" stroke-linecap="round" stroke-linejoin="miter"></path></svg>