<svg id="visual" viewBox="0 0 900 600" width="900" height="600" xmlns="http://www.w3.org/2000/svg" xmlns:xlink="http://www.w3.org/1999/xlink" version="1.1"><rect x="0" y="0" width="900" height="600" fill="#efffd2"></rect><path d="M331 0L285 20C239 40 147 80 109.5 120C72 160 89 200 126.2 240C163.3 280 220.7 320 230 360C239.3 400 200.7 440 181.3 480C162 520 162 560 162 580L162 600L0 600L0 580C0 560 0 520 0 480C0 440 0 400 0 360C0 320 0 280 0 240C0 200 0 160 0 120C0 80 0 40 0 20L0 0Z" fill="#00d5ff" stroke-linecap="round" stroke-linejoin="miter"></path></svg>