<svg id="visual" viewBox="0 0 900 600" width="900" height="600" xmlns="http://www.w3.org/2000/svg" xmlns:xlink="http://www.w3.org/1999/xlink" version="1.1"><rect x="0" y="0" width="900" height="600" fill="#fff"></rect><path d="M0 518L13.7 511.8C27.3 505.7 54.7 493.3 82 486.5C109.3 479.7 136.7 478.3 163.8 485.3C191 492.3 218 507.7 245.2 509C272.3 510.3 299.7 497.7 327 499C354.3 500.3 381.7 515.7 409 523.2C436.3 530.7 463.7 530.3 491 531.5C518.3 532.7 545.7 535.3 573 538.3C600.3 541.3 627.7 544.7 654.8 539.7C682 534.7 709 521.3 736.2 520.5C763.3 519.7 790.7 531.3 818 524.8C845.3 518.3 872.7 493.7 886.3 481.3L900 469L900 601L886.3 601C872.7 601 845.3 601 818 601C790.7 601 763.3 601 736.2 601C709 601 682 601 654.8 601C627.7 601 600.3 601 573 601C545.7 601 518.3 601 491 601C463.7 601 436.3 601 409 601C381.7 601 354.3 601 327 601C299.7 601 272.3 601 245.2 601C218 601 191 601 163.8 601C136.7 601 109.3 601 82 601C54.7 601 27.3 601 13.7 601L0 601Z" fill="#00d5ff" stroke-linecap="round" stroke-linejoin="miter"></path></svg>